<?xml version="1.0" encoding="utf-8"?>
<svg width="72" height="72" viewBox="0 0 72 72" fill="none" xmlns="http://www.w3.org/2000/svg">
  <g filter="url(#filter0_d_180_751)">
    <circle cx="36" cy="32" r="32" fill="white"/>
  </g>
  <defs>
    <filter id="filter0_d_180_751" x="0" y="0" width="72" height="72" filterUnits="userSpaceOnUse" color-interpolation-filters="sRGB">
      <feFlood flood-opacity="0" result="BackgroundImageFix"/>
      <feColorMatrix in="SourceAlpha" type="matrix" values="0 0 0 0 0 0 0 0 0 0 0 0 0 0 0 0 0 0 127 0" result="hardAlpha"/>
      <feOffset dy="4"/>
      <feGaussianBlur stdDeviation="2"/>
      <feComposite in2="hardAlpha" operator="out"/>
      <feColorMatrix type="matrix" values="0 0 0 0 0 0 0 0 0 0 0 0 0 0 0 0 0 0 0.25 0"/>
      <feBlend mode="normal" in2="BackgroundImageFix" result="effect1_dropShadow_180_751"/>
      <feBlend mode="normal" in="SourceGraphic" in2="effect1_dropShadow_180_751" result="shape"/>
    </filter>
  </defs>
  <path d="M 36.01 63.708 C 53.324 63.708 67.359 49.672 67.359 32.359 C 67.359 15.046 53.324 1.011 36.01 1.011 C 18.697 1.011 4.661 15.046 4.661 32.359 C 4.661 49.672 18.697 63.708 36.01 63.708 Z" stroke="black" stroke-width="1.5" stroke-linecap="round" stroke-linejoin="round" style=""/>
  <path d="M 39.697 21.091 C 39.817 20.964 39.911 20.814 39.974 20.65 C 40.036 20.487 40.066 20.312 40.061 20.137 C 40.056 19.962 40.016 19.79 39.945 19.63 C 39.873 19.47 39.771 19.326 39.644 19.206 C 39.516 19.085 39.367 18.991 39.203 18.929 C 39.039 18.866 38.865 18.837 38.69 18.842 C 38.515 18.847 38.342 18.886 38.183 18.958 C 38.023 19.029 37.879 19.132 37.758 19.259 L 26.425 31.259 C 26.191 31.506 26.06 31.834 26.06 32.175 C 26.06 32.516 26.191 32.843 26.425 33.091 L 37.758 45.092 C 37.878 45.222 38.022 45.327 38.182 45.401 C 38.343 45.475 38.516 45.516 38.693 45.523 C 38.869 45.529 39.045 45.5 39.211 45.438 C 39.376 45.375 39.527 45.281 39.656 45.16 C 39.784 45.038 39.887 44.893 39.959 44.731 C 40.03 44.57 40.069 44.396 40.073 44.219 C 40.077 44.043 40.046 43.867 39.981 43.703 C 39.917 43.538 39.82 43.388 39.697 43.262 L 29.228 32.175 L 39.697 21.091 Z" fill="black"/>
</svg>