<svg width="25" height="29" viewBox="0 0 25 29" fill="none" xmlns="http://www.w3.org/2000/svg">
<path d="M17.9287 2.79766C17.9171 2.80426 17.9039 2.81416 17.8907 2.82242C17.9039 2.81416 17.9155 2.80426 17.9287 2.79766C17.9138 2.77455 17.9006 2.74978 17.8857 2.72667C17.9006 2.74978 17.9138 2.77289 17.9287 2.79766Z" fill="black"/>
<path d="M14.4551 28.5285C14.5178 28.4955 14.564 28.4014 14.6069 28.2924C15.1864 28.0861 15.7658 27.8797 16.3452 27.6717C15.7658 27.8781 15.1864 28.0844 14.6069 28.2924C14.564 28.4014 14.5162 28.4971 14.4551 28.5285Z" fill="black"/>
<path d="M16.707 15.6523C15.4838 17.8776 13.4417 19.1867 11.2957 20.334C10.127 20.9596 8.87732 21.4417 7.64914 21.9484C6.61575 22.3743 5.51797 22.8778 4.43175 22.7524C3.24484 22.6154 2.01336 22.6467 0.854506 22.239C0.587079 22.1449 0.237113 22.0161 0.0505746 22.376C-0.10625 22.6797 0.133114 22.8745 0.339462 23.0611C0.864412 23.5365 1.39927 24.0037 1.90276 24.5022C2.92624 25.5158 4.02071 26.4501 5.22909 27.2227C5.96534 27.6932 6.65701 28.3271 7.55834 28.4525C9.4617 28.7167 11.37 29.1112 13.2998 28.6193C13.3856 28.5862 13.4715 28.5516 13.559 28.5169C13.7769 28.474 13.9948 28.4311 14.2127 28.3882C14.3266 28.2792 14.4553 28.2396 14.6088 28.2924C15.1883 28.0861 15.7677 27.8797 16.3471 27.6717C16.4676 27.5017 16.6195 27.4059 16.8358 27.4621C17.0471 27.3135 17.2584 27.1633 17.4713 27.0147C17.5406 26.7027 17.7701 26.5756 18.0557 26.5129L18.0771 26.498C18.2389 26.2322 18.4453 26.0176 18.7556 25.9268L18.7655 25.9153C18.9702 25.5439 19.307 25.3342 19.6801 25.1675C19.6883 25.1213 19.7147 25.0948 19.7609 25.0866C20.3305 24.4213 20.8736 23.7296 21.6131 23.2344C23.9655 20.1474 24.9741 16.6643 24.7017 12.8014C24.5961 12.5852 24.507 12.3656 24.5598 12.118C24.5367 11.9298 24.5136 11.7416 24.4921 11.5518C24.4855 11.494 24.4789 11.4379 24.4739 11.3801C23.8301 9.51803 23.4141 7.55525 22.1414 5.96719C20.3684 3.75349 18.47 1.6801 15.8634 0.402395C15.4673 0.207602 14.9555 -0.216649 14.6749 0.134968C14.4008 0.478331 14.9539 0.910837 15.1685 1.29382C15.1949 1.34169 15.2576 1.37141 15.3038 1.40937C16.806 2.60949 17.5142 4.30815 18.0111 6.06129C18.8117 8.89238 17.9566 11.6096 17.1147 14.2838C16.9711 14.7395 16.9381 15.2347 16.707 15.6556V15.6523ZM17.8906 2.82245C17.8774 2.8307 17.8658 2.83565 17.8559 2.834C17.8361 2.82905 17.8246 2.79273 17.8097 2.76962C17.8345 2.75641 17.8576 2.74321 17.8857 2.72835C17.9005 2.75146 17.9137 2.77457 17.9286 2.79934C17.917 2.80594 17.9038 2.81584 17.8906 2.8241V2.82245ZM19.8616 9.16971C19.9541 7.10788 19.1667 5.31843 18.2868 3.54384C18.1943 3.35895 18.0986 3.17736 18.0639 2.9413C19.2079 3.64124 20.0663 4.65812 20.8224 5.70967C23.637 9.62533 24.0431 13.8563 22.4171 18.3811C21.3969 21.2188 19.2475 23.0231 17.0784 24.8901C15.2031 26.5046 12.9845 27.1633 10.6387 27.297C8.24507 27.434 6.02641 26.6812 4.18909 25.0618C3.81436 24.7317 3.30922 24.522 3.05995 23.9773C3.23659 23.9773 3.38681 23.9508 3.52382 23.9822C6.07429 24.5633 8.27149 23.4771 10.5248 22.5642C12.6857 21.6893 14.5659 20.4083 16.3587 18.9457C17.5225 17.9965 18.1399 16.7204 18.6087 15.3833C19.3136 13.3792 19.7676 11.3124 19.8616 9.16971Z" fill="black"/>
<path d="M18.0542 26.5129L18.0757 26.4963L18.0542 26.5129Z" fill="black"/>
<path d="M19.6782 25.1658C19.6865 25.1196 19.7129 25.0932 19.7591 25.0849C19.7129 25.0915 19.6865 25.1196 19.6782 25.1658Z" fill="black"/>
<path d="M18.7539 25.9254L18.764 25.9136L18.7539 25.9254Z" fill="black"/>
<path d="M21.6115 23.2328C20.8719 23.728 20.3288 24.4197 19.7593 25.085C20.72 24.8109 21.2978 24.1539 21.6115 23.2328Z" fill="black"/>
<path d="M18.7637 25.9136C18.8363 25.9252 18.904 25.9301 18.9667 25.9285C19.0905 25.9252 19.1929 25.8938 19.2787 25.8443C19.4933 25.7172 19.6039 25.4629 19.6782 25.1674C19.3051 25.3342 18.9684 25.5438 18.7637 25.9153V25.9136Z" fill="black"/>
<path d="M19.2788 25.8427C19.193 25.8938 19.0906 25.9235 18.9668 25.9268C19.0906 25.9235 19.193 25.8922 19.2788 25.8427Z" fill="black"/>
<path d="M19.2788 25.8427C19.4934 25.7156 19.604 25.4613 19.6783 25.1658C19.6024 25.463 19.4934 25.7172 19.2788 25.8427Z" fill="black"/>
<path d="M18.7542 25.9252C18.4438 26.016 18.2375 26.2306 18.0757 26.4964C18.2094 26.5393 18.315 26.5508 18.3992 26.536C18.6535 26.4931 18.7162 26.2223 18.7542 25.9252Z" fill="black"/>
<path d="M18.3989 26.5376C18.6531 26.4947 18.7159 26.224 18.7538 25.9269C18.7159 26.2256 18.6531 26.4947 18.3989 26.5376Z" fill="black"/>
<path d="M18.0541 26.5128C17.7685 26.5756 17.5407 26.701 17.4697 27.0147C17.5638 27.0262 17.6497 27.0279 17.724 27.0147C17.9485 26.98 18.0739 26.8315 18.0525 26.5112L18.0541 26.5128Z" fill="black"/>
<path d="M17.7236 27.0147C17.9481 26.98 18.0736 26.8315 18.0521 26.5112C18.0736 26.8315 17.9465 26.98 17.7236 27.0147Z" fill="black"/>
<path d="M24.5599 12.1147C24.5055 12.364 24.5946 12.5835 24.7019 12.7981C24.834 12.5324 24.9116 12.2798 24.5599 12.1147Z" fill="black"/>
<path d="M14.2126 28.3865C14.3166 28.5301 14.3942 28.5599 14.4553 28.5285C14.518 28.4955 14.5642 28.4014 14.6071 28.2924C14.4553 28.238 14.3248 28.2792 14.2109 28.3882L14.2126 28.3865Z" fill="black"/>
<path d="M16.3452 27.6717C16.5813 27.7741 16.7497 27.7163 16.8339 27.4621C16.6176 27.406 16.4641 27.5017 16.3452 27.6717Z" fill="black"/>
<path d="M13.557 28.5169C13.4712 28.5516 13.3853 28.5846 13.2979 28.6192C13.3292 28.6374 13.3589 28.649 13.3853 28.6523C13.4662 28.6655 13.5224 28.6209 13.5554 28.5169H13.557Z" fill="black"/>
<path d="M13.3872 28.6523C13.4681 28.6655 13.5242 28.6209 13.5572 28.5169C13.5242 28.6209 13.4664 28.6671 13.3872 28.6523Z" fill="black"/>
<path d="M24.4722 11.3785C24.4788 11.4362 24.4854 11.4924 24.4903 11.5501C24.6273 11.4775 24.5976 11.423 24.4722 11.3785Z" fill="black"/>
</svg>
