<svg width="28" height="30" viewBox="0 0 28 30" fill="none" xmlns="http://www.w3.org/2000/svg">
<path d="M13.685 17.1637C13.7635 17.0883 13.8526 17.0237 13.9417 16.9677C14.1625 16.832 14.4192 16.7523 14.6782 16.7459C14.954 16.7372 15.1111 16.8062 15.3721 16.7006C15.8348 16.5133 16.3038 16.341 16.76 16.1385C17.6662 15.7423 18.5512 15.2749 19.3342 14.6611C19.956 14.1722 20.5057 13.5907 20.9365 12.9209C21.6305 11.8355 22.0358 10.5928 22.4624 9.38245C22.9377 8.03425 23.3983 6.68173 23.846 5.32492C24.3532 3.78073 24.8413 2.23225 25.3125 0.677292C25.4462 0.235788 25.0387 -0.018349 24.6461 0.00103406C21.8066 0.147484 19.1708 1.61845 17.2503 3.7032C15.2511 5.87196 14.1052 8.6868 13.5873 11.5835C13.3242 13.0502 13.2244 14.5427 13.2351 16.0308C11.9533 17.7236 10.4656 19.242 9.0034 20.7819C9.10102 18.2728 8.89517 15.7358 8.09298 13.3495C7.3396 11.114 6.01748 9.07232 4.19239 7.59059C3.21406 6.79804 2.08505 6.18423 0.879641 5.83749C0.576167 5.74919 -0.028655 5.80949 0.00105569 6.26823C0.166587 8.91725 0.671668 11.5447 1.50569 14.0624C1.92376 15.3287 2.42672 16.565 3.0082 17.7624C3.47509 18.7208 3.9929 19.677 4.69535 20.4803C5.46571 21.3612 6.46313 22.0439 7.63671 22.1796C7.65581 22.1818 7.67491 22.1817 7.69613 22.1839C6.63503 23.3512 5.62487 24.5594 4.76114 25.8925C4.05232 26.9845 3.45811 28.1539 3.04003 29.3923C2.86814 29.8984 4.00139 30.2666 4.17541 29.7519C5.30654 26.4029 7.6834 23.8078 10.0815 21.2944C10.1324 21.2858 10.1833 21.2686 10.2279 21.2363C10.2449 21.2255 10.2597 21.2147 10.2767 21.204C12.2652 22.7137 14.3365 24.2105 16.7346 24.9492C19.2515 25.7246 21.9064 25.4187 24.279 24.3139C25.6223 23.6872 26.8362 22.8149 27.9079 21.7876C28.2114 21.4969 27.6893 20.9972 27.4304 20.9348C24.9793 20.3468 22.5324 19.7115 20.0643 19.1903C17.7426 18.6993 15.3424 18.3956 12.991 18.8672C12.7194 18.9211 12.452 18.9878 12.1846 19.0654C12.2291 19.018 12.2737 18.9706 12.3162 18.9211C12.7342 18.4602 13.2287 18.0144 13.4834 17.4437C13.53 17.3403 13.6022 17.2477 13.685 17.168V17.1637ZM15.7286 8.31853C16.7367 5.81596 18.4302 3.62567 20.7434 2.24516C21.7387 1.65075 22.8274 1.25231 23.9585 1.0714C23.2221 3.4706 22.4454 5.85688 21.6199 8.22593C21.1975 9.43629 20.8113 10.6833 20.2298 11.8247C19.6993 12.8671 18.9374 13.6984 17.9654 14.3337C17.1166 14.8872 16.1849 15.2857 15.2427 15.6496C17.0338 12.88 18.6849 10.0178 20.1768 7.0694C20.4802 6.46853 19.3449 6.1347 19.0626 6.69035C17.6577 9.46644 16.1149 12.1693 14.4383 14.786C14.5296 12.5742 14.8989 10.3688 15.7265 8.31638L15.7286 8.31853ZM4.14358 17.4738C3.06338 15.2555 2.24846 12.8908 1.74974 10.4679C1.51418 9.31999 1.35077 8.15917 1.2489 6.99187C2.87875 7.68751 4.24969 8.88495 5.29593 10.343C6.73478 12.3502 7.45844 14.7925 7.71523 17.2391C7.80436 18.0811 7.83832 18.9254 7.8362 19.7696C6.51407 17.2951 5.38718 14.7171 4.47252 12.0573C4.28364 11.506 3.1228 11.7278 3.33502 12.3459C4.38126 15.3934 5.70764 18.3353 7.28867 21.135C5.75857 20.5988 4.81843 18.8629 4.14145 17.4738H4.14358ZM23.3325 20.9025C24.3299 21.1415 25.3252 21.3806 26.3226 21.6196C24.6907 22.9915 22.717 23.9758 20.6161 24.2923C18.1925 24.6585 15.909 23.8982 13.8378 22.6556C13.3093 22.339 12.7979 21.9944 12.2949 21.6369C15.0899 22.3217 17.9251 22.8386 20.7795 23.1832C21.0511 23.2155 21.2188 22.9571 21.1487 22.7094C21.066 22.4143 20.7773 22.2162 20.4887 22.1818C17.4625 21.8178 14.4659 21.2514 11.514 20.4933C15.1854 18.7854 19.5571 19.9979 23.3325 20.9025Z" fill="black"/>
</svg>
