<svg width="23" height="40" viewBox="0 0 23 40" fill="none" xmlns="http://www.w3.org/2000/svg">
<path d="M13.9275 19.1175C9.48455 20.2352 5.22039 22.8244 0.439245 23.3833L0 22.7641C0.419807 21.9319 0.688013 20.9629 1.28274 20.2955C6.48369 14.4256 11.7196 8.58377 17.0061 2.79424C18.0517 1.6484 19.3656 0.767916 20.8271 0C18.4404 5.41964 14.565 9.75776 10.8373 14.9482C12.6992 14.3813 14.0558 13.9632 15.4124 13.5571C17.2704 12.9983 19.1168 12.3832 20.9982 11.9369C21.6123 11.7921 22.3275 12.1138 23 12.2183C22.8795 12.9018 22.9611 13.734 22.6074 14.2446C19.8281 18.2692 17.0061 22.2575 14.1219 26.2016C11.3931 29.9367 8.61773 33.6355 5.77237 37.2741C4.95607 38.3194 3.82104 39.0994 2.82982 40C2.57716 39.803 2.3245 39.606 2.07183 39.413C2.35559 38.6089 2.51496 37.7244 2.94643 37.0168C6.57699 31.0302 10.262 25.0759 13.9236 19.1135L13.9275 19.1175ZM14.4056 22.0364L14.7399 22.2615C16.9011 19.4633 19.0624 16.665 21.2275 13.8667C21.0642 13.6697 20.901 13.4727 20.7338 13.2757C17.4609 14.4738 14.1996 15.7081 10.9072 16.8379C10.1764 17.0871 9.32906 16.9786 8.53609 17.0349C8.73045 16.1866 8.73822 15.2216 9.16191 14.518C10.087 12.9862 11.2221 11.5871 12.2677 10.1357C12.1861 10.0754 12.1044 10.0111 12.0267 9.95075C8.66436 13.8547 5.29814 17.7626 1.9358 21.6665L2.14958 22.0484C6.79467 20.4402 11.4436 18.828 16.0887 17.2198C16.2637 17.445 16.4386 17.6661 16.6135 17.8912C15.8788 19.2703 15.1403 20.6533 14.4056 22.0324V22.0364Z" fill="white"/>
</svg>
